<mxfile host="localhost" modified="2020-05-25T11:10:21.869Z" agent="5.0 (Windows NT 10.0; Win64; x64) AppleWebKit/537.36 (KHTML, like Gecko) Code/1.45.1 Chrome/78.0.3904.130 Electron/7.2.4 Safari/537.36" etag="Nt5Kz7QDaGyh_6DfDwaa" version="13.0.9">
    <diagram id="0csHAaC6P_0vUHUQQo8H" name="第 1 页">
        <mxGraphModel dx="983" dy="659" grid="1" gridSize="10" guides="1" tooltips="1" connect="1" arrows="1" fold="1" page="1" pageScale="1" pageWidth="827" pageHeight="1169" math="0" shadow="0">
            <root>
                <mxCell id="0"/>
                <mxCell id="1" parent="0"/>
                <mxCell id="92" value="HDRS架构" style="rounded=0;whiteSpace=wrap;html=1;strokeColor=#000000;fillColor=#CCCCCC;fontColor=#000000;verticalAlign=top;align=left;fontSize=18;fontStyle=1;labelBorderColor=none;" vertex="1" parent="1">
                    <mxGeometry x="40" y="40" width="760" height="480" as="geometry"/>
                </mxCell>
                <mxCell id="2" value="" style="rounded=0;whiteSpace=wrap;html=1;fontColor=#000000;strokeColor=#000000;fillColor=#B3B3B3;verticalAlign=top;align=center;fontStyle=0" parent="1" vertex="1">
                    <mxGeometry x="60" y="200" width="280" height="300" as="geometry"/>
                </mxCell>
                <mxCell id="58" value="kernal" style="rounded=0;whiteSpace=wrap;html=1;strokeColor=#000000;fillColor=#999999;fontColor=#FFFFFF;verticalAlign=top;align=left;labelBackgroundColor=#4D4D4D;horizontal=1;fontStyle=1;labelBorderColor=#000000;" vertex="1" parent="1">
                    <mxGeometry x="80" y="380" width="110" height="50" as="geometry"/>
                </mxCell>
                <mxCell id="6" value="管理区" style="rounded=0;whiteSpace=wrap;html=1;fillColor=#B3B3B3;fontColor=#000000;verticalAlign=top;align=left;labelBorderColor=none;strokeColor=#000000;" parent="1" vertex="1">
                    <mxGeometry x="380" y="100" width="400" height="130" as="geometry"/>
                </mxCell>
                <mxCell id="8" value="vol" style="shape=cylinder;whiteSpace=wrap;html=1;boundedLbl=1;backgroundOutline=1;strokeColor=#000000;fillColor=#F5E3D0;fontColor=#000000;" parent="1" vertex="1">
                    <mxGeometry x="102" y="460" width="40" height="30" as="geometry"/>
                </mxCell>
                <mxCell id="118" style="edgeStyle=orthogonalEdgeStyle;rounded=0;orthogonalLoop=1;jettySize=auto;html=1;entryX=0;entryY=0.5;entryDx=0;entryDy=0;strokeColor=#006600;strokeWidth=1;fontSize=14;fontColor=#990000;" edge="1" parent="1" source="10" target="25">
                    <mxGeometry relative="1" as="geometry"/>
                </mxCell>
                <mxCell id="10" value="DRM" style="rounded=0;whiteSpace=wrap;html=1;fillColor=#00B0F0;strokeColor=#000000;fontColor=#000000;" parent="1" vertex="1">
                    <mxGeometry x="80" y="230" width="230" height="30" as="geometry"/>
                </mxCell>
                <mxCell id="11" value="Host" style="rounded=0;whiteSpace=wrap;html=1;verticalAlign=top;align=center;labelBackgroundColor=none;fillColor=#999999;strokeColor=#000000;fontColor=#000000;" parent="1" vertex="1">
                    <mxGeometry x="80" y="295" width="110" height="25" as="geometry"/>
                </mxCell>
                <mxCell id="12" value="" style="rounded=0;whiteSpace=wrap;html=1;verticalAlign=top;align=center;fillColor=#999999;fontColor=#000000;strokeColor=#000000;" parent="1" vertex="1">
                    <mxGeometry x="220" y="340" width="100" height="90" as="geometry"/>
                </mxCell>
                <mxCell id="14" value="vol" style="shape=cylinder;whiteSpace=wrap;html=1;boundedLbl=1;backgroundOutline=1;fillColor=#F5E3D0;strokeColor=#000000;fontColor=#000000;" parent="1" vertex="1">
                    <mxGeometry x="170" y="460" width="40" height="30" as="geometry"/>
                </mxCell>
                <mxCell id="36" value="DRA" style="rounded=0;whiteSpace=wrap;html=1;fillColor=#FF3333;strokeColor=#000000;fontColor=#000000;" parent="1" vertex="1">
                    <mxGeometry x="235" y="350" width="50" height="30" as="geometry"/>
                </mxCell>
                <mxCell id="134" style="edgeStyle=orthogonalEdgeStyle;rounded=0;jumpSize=3;orthogonalLoop=1;jettySize=auto;html=1;entryX=0.5;entryY=0;entryDx=0;entryDy=0;strokeColor=#009900;strokeWidth=1;fontSize=14;fontColor=#990000;" edge="1" parent="1" target="119">
                    <mxGeometry relative="1" as="geometry">
                        <mxPoint x="586" y="150" as="sourcePoint"/>
                        <Array as="points">
                            <mxPoint x="586" y="150"/>
                            <mxPoint x="586" y="150"/>
                        </Array>
                    </mxGeometry>
                </mxCell>
                <mxCell id="25" value="HDRS API" style="rounded=0;whiteSpace=wrap;html=1;fillColor=#00B0F0;strokeColor=#000000;fontColor=#000000;" parent="1" vertex="1">
                    <mxGeometry x="422" y="120" width="337" height="30" as="geometry"/>
                </mxCell>
                <mxCell id="47" value="1" style="rounded=0;whiteSpace=wrap;html=1;fillColor=#FF3333;strokeColor=#000000;fontColor=#000000;" parent="1" vertex="1">
                    <mxGeometry x="240" y="356" width="50" height="30" as="geometry"/>
                </mxCell>
                <mxCell id="48" value="DRA" style="rounded=0;whiteSpace=wrap;html=1;fillColor=#FF3333;strokeColor=#000000;fontColor=#000000;" parent="1" vertex="1">
                    <mxGeometry x="246" y="362" width="50" height="30" as="geometry"/>
                </mxCell>
                <mxCell id="68" style="edgeStyle=orthogonalEdgeStyle;rounded=0;orthogonalLoop=1;jettySize=auto;html=1;entryX=0.5;entryY=1;entryDx=0;entryDy=0;fontColor=#000000;strokeColor=#FF0000;strokeWidth=2;" edge="1" parent="1" source="51" target="48">
                    <mxGeometry relative="1" as="geometry">
                        <Array as="points">
                            <mxPoint x="271" y="410"/>
                        </Array>
                    </mxGeometry>
                </mxCell>
                <mxCell id="69" style="edgeStyle=orthogonalEdgeStyle;rounded=0;orthogonalLoop=1;jettySize=auto;html=1;strokeColor=#FF0000;fontColor=#000000;strokeWidth=2;" edge="1" parent="1" source="51" target="8">
                    <mxGeometry relative="1" as="geometry"/>
                </mxCell>
                <mxCell id="70" style="edgeStyle=orthogonalEdgeStyle;rounded=0;orthogonalLoop=1;jettySize=auto;html=1;strokeColor=#FF0000;fontColor=#000000;strokeWidth=2;" edge="1" parent="1" source="51" target="14">
                    <mxGeometry relative="1" as="geometry"/>
                </mxCell>
                <mxCell id="51" value="Driver" style="rounded=0;whiteSpace=wrap;html=1;fillColor=#FF3333;strokeColor=#000000;fontColor=#000000;" vertex="1" parent="1">
                    <mxGeometry x="130" y="400" width="50" height="20" as="geometry"/>
                </mxCell>
                <mxCell id="60" value="user" style="rounded=0;whiteSpace=wrap;html=1;strokeColor=#000000;fillColor=#999999;fontColor=#FFFFFF;align=left;verticalAlign=top;labelBackgroundColor=#4D4D4D;labelBorderColor=#000000;fontStyle=1" vertex="1" parent="1">
                    <mxGeometry x="80" y="320" width="110" height="60" as="geometry"/>
                </mxCell>
                <mxCell id="50" value="API" style="rounded=0;whiteSpace=wrap;html=1;fillColor=#00B0F0;strokeColor=#000000;fontColor=#000000;" vertex="1" parent="1">
                    <mxGeometry x="150" y="330" width="30" height="20" as="geometry"/>
                </mxCell>
                <mxCell id="74" value="io" style="ellipse;whiteSpace=wrap;html=1;aspect=fixed;strokeColor=#000000;fillColor=#FF3333;fontColor=#000000;" vertex="1" parent="1">
                    <mxGeometry x="130" y="355" width="20" height="20" as="geometry"/>
                </mxCell>
                <mxCell id="75" value="io" style="ellipse;whiteSpace=wrap;html=1;aspect=fixed;strokeColor=#000000;fillColor=#FF3333;fontColor=#000000;" vertex="1" parent="1">
                    <mxGeometry x="94" y="350" width="20" height="20" as="geometry"/>
                </mxCell>
                <mxCell id="76" style="edgeStyle=orthogonalEdgeStyle;rounded=0;orthogonalLoop=1;jettySize=auto;html=1;strokeColor=#FF0000;fontColor=#000000;strokeWidth=2;jumpSize=3;" edge="1" parent="1" source="73" target="51">
                    <mxGeometry relative="1" as="geometry">
                        <Array as="points">
                            <mxPoint x="120" y="390"/>
                            <mxPoint x="155" y="390"/>
                        </Array>
                    </mxGeometry>
                </mxCell>
                <mxCell id="73" value="io" style="ellipse;whiteSpace=wrap;html=1;aspect=fixed;strokeColor=#000000;fillColor=#FF3333;fontColor=#000000;" vertex="1" parent="1">
                    <mxGeometry x="112" y="350" width="20" height="20" as="geometry"/>
                </mxCell>
                <mxCell id="87" value="复制集群" style="rounded=0;whiteSpace=wrap;html=1;strokeColor=#000000;fillColor=#999999;fontColor=#000000;" vertex="1" parent="1">
                    <mxGeometry x="220" y="310" width="100" height="30" as="geometry"/>
                </mxCell>
                <mxCell id="128" style="edgeStyle=orthogonalEdgeStyle;rounded=0;jumpSize=3;orthogonalLoop=1;jettySize=auto;html=1;entryX=0.5;entryY=0;entryDx=0;entryDy=0;strokeColor=#006600;strokeWidth=1;fontSize=14;fontColor=#990000;" edge="1" parent="1" source="91" target="87">
                    <mxGeometry relative="1" as="geometry"/>
                </mxCell>
                <mxCell id="129" style="edgeStyle=orthogonalEdgeStyle;rounded=0;jumpSize=3;orthogonalLoop=1;jettySize=auto;html=1;entryX=1;entryY=0.5;entryDx=0;entryDy=0;strokeColor=#006600;strokeWidth=1;fontSize=14;fontColor=#990000;" edge="1" parent="1" source="91" target="50">
                    <mxGeometry relative="1" as="geometry"/>
                </mxCell>
                <mxCell id="91" value="sDRM" style="rounded=0;whiteSpace=wrap;html=1;fillColor=#00B0F0;strokeColor=#000000;fontColor=#000000;" vertex="1" parent="1">
                    <mxGeometry x="90" y="240" width="230" height="30" as="geometry"/>
                </mxCell>
                <mxCell id="95" value="管理下沉POD区" style="rounded=0;whiteSpace=wrap;html=1;strokeColor=#000000;fillColor=#B3B3B3;fontSize=12;fontColor=#000000;align=left;verticalAlign=top;" vertex="1" parent="1">
                    <mxGeometry x="380" y="230" width="160" height="180" as="geometry"/>
                </mxCell>
                <mxCell id="96" value="存储区" style="rounded=0;whiteSpace=wrap;html=1;strokeColor=#000000;fillColor=#B3B3B3;fontSize=12;fontColor=#000000;align=left;verticalAlign=top;" vertex="1" parent="1">
                    <mxGeometry x="380" y="410" width="400" height="90" as="geometry"/>
                </mxCell>
                <mxCell id="97" value="租户POD区" style="rounded=0;whiteSpace=wrap;html=1;strokeColor=#000000;fillColor=#B3B3B3;fontSize=12;fontColor=#000000;align=right;verticalAlign=top;" vertex="1" parent="1">
                    <mxGeometry x="540" y="230" width="240" height="180" as="geometry"/>
                </mxCell>
                <mxCell id="98" value="华为云" style="rounded=0;whiteSpace=wrap;html=1;strokeColor=#000000;fillColor=#B3B3B3;fontSize=14;fontColor=#000000;align=center;fontStyle=0" vertex="1" parent="1">
                    <mxGeometry x="380" y="70" width="400" height="30" as="geometry"/>
                </mxCell>
                <mxCell id="90" value="对象存储" style="ellipse;shape=cloud;whiteSpace=wrap;html=1;strokeColor=#000000;fillColor=#F5E3D0;fontColor=#000000;" vertex="1" parent="1">
                    <mxGeometry x="400" y="440" width="110" height="50" as="geometry"/>
                </mxCell>
                <mxCell id="100" value="" style="rounded=0;whiteSpace=wrap;html=1;verticalAlign=top;align=center;fillColor=#999999;fontColor=#000000;strokeColor=#000000;" vertex="1" parent="1">
                    <mxGeometry x="400" y="310" width="100" height="80" as="geometry"/>
                </mxCell>
                <mxCell id="101" value="DRA" style="rounded=0;whiteSpace=wrap;html=1;fillColor=#FF3333;strokeColor=#000000;fontColor=#000000;" vertex="1" parent="1">
                    <mxGeometry x="414" y="327" width="50" height="30" as="geometry"/>
                </mxCell>
                <mxCell id="102" value="复制集群" style="rounded=0;whiteSpace=wrap;html=1;strokeColor=#000000;fillColor=#999999;fontColor=#000000;" vertex="1" parent="1">
                    <mxGeometry x="400" y="280" width="100" height="30" as="geometry"/>
                </mxCell>
                <mxCell id="104" style="edgeStyle=orthogonalEdgeStyle;rounded=0;orthogonalLoop=1;jettySize=auto;html=1;strokeColor=#FF0000;strokeWidth=2;fontSize=14;fontColor=#990000;entryX=0.073;entryY=0.58;entryDx=0;entryDy=0;entryPerimeter=0;" edge="1" parent="1" source="48" target="90">
                    <mxGeometry relative="1" as="geometry">
                        <mxPoint x="400" y="468" as="targetPoint"/>
                        <Array as="points">
                            <mxPoint x="360" y="377"/>
                            <mxPoint x="360" y="468"/>
                        </Array>
                    </mxGeometry>
                </mxCell>
                <mxCell id="110" value="DRA" style="rounded=0;whiteSpace=wrap;html=1;fillColor=#FF3333;strokeColor=#000000;fontColor=#000000;" vertex="1" parent="1">
                    <mxGeometry x="421" y="334" width="50" height="30" as="geometry"/>
                </mxCell>
                <mxCell id="117" style="edgeStyle=orthogonalEdgeStyle;rounded=0;orthogonalLoop=1;jettySize=auto;html=1;strokeColor=#FF0000;strokeWidth=2;fontSize=14;fontColor=#990000;entryX=0.5;entryY=0;entryDx=0;entryDy=0;" edge="1" parent="1" source="111" target="114">
                    <mxGeometry relative="1" as="geometry">
                        <Array as="points">
                            <mxPoint x="520" y="356"/>
                            <mxPoint x="520" y="420"/>
                            <mxPoint x="550" y="420"/>
                        </Array>
                    </mxGeometry>
                </mxCell>
                <mxCell id="111" value="DRA" style="rounded=0;whiteSpace=wrap;html=1;fillColor=#FF3333;strokeColor=#000000;fontColor=#000000;" vertex="1" parent="1">
                    <mxGeometry x="430" y="341" width="50" height="30" as="geometry"/>
                </mxCell>
                <mxCell id="113" style="edgeStyle=orthogonalEdgeStyle;rounded=0;orthogonalLoop=1;jettySize=auto;html=1;entryX=0.5;entryY=1;entryDx=0;entryDy=0;strokeColor=#FF0000;strokeWidth=2;fontSize=14;fontColor=#990000;" edge="1" parent="1">
                    <mxGeometry relative="1" as="geometry">
                        <mxPoint x="445" y="440" as="sourcePoint"/>
                        <mxPoint x="445" y="371" as="targetPoint"/>
                    </mxGeometry>
                </mxCell>
                <mxCell id="114" value="vol" style="shape=cylinder;whiteSpace=wrap;html=1;boundedLbl=1;backgroundOutline=1;fillColor=#F5E3D0;strokeColor=#000000;fontColor=#000000;" vertex="1" parent="1">
                    <mxGeometry x="530" y="450" width="40" height="30" as="geometry"/>
                </mxCell>
                <mxCell id="115" value="vol" style="shape=cylinder;whiteSpace=wrap;html=1;boundedLbl=1;backgroundOutline=1;fillColor=#F5E3D0;strokeColor=#000000;fontColor=#000000;" vertex="1" parent="1">
                    <mxGeometry x="580" y="450" width="40" height="30" as="geometry"/>
                </mxCell>
                <mxCell id="119" value="tDRM" style="rounded=0;whiteSpace=wrap;html=1;fillColor=#00B0F0;strokeColor=#000000;fontColor=#000000;" vertex="1" parent="1">
                    <mxGeometry x="422" y="180" width="328" height="30" as="geometry"/>
                </mxCell>
                <mxCell id="120" value="tDRM" style="rounded=0;whiteSpace=wrap;html=1;fillColor=#00B0F0;strokeColor=#000000;fontColor=#000000;" vertex="1" parent="1">
                    <mxGeometry x="428" y="190" width="332" height="26" as="geometry"/>
                </mxCell>
                <mxCell id="127" value="" style="endArrow=classic;startArrow=classic;html=1;strokeColor=#006600;strokeWidth=1;fontSize=14;fontColor=#990000;exitX=0.5;exitY=0;exitDx=0;exitDy=0;" edge="1" parent="1" source="102">
                    <mxGeometry width="50" height="50" relative="1" as="geometry">
                        <mxPoint x="460" y="260" as="sourcePoint"/>
                        <mxPoint x="498" y="216" as="targetPoint"/>
                        <Array as="points">
                            <mxPoint x="450" y="260"/>
                            <mxPoint x="498" y="260"/>
                        </Array>
                    </mxGeometry>
                </mxCell>
                <mxCell id="135" value="ReserverdECS" style="rounded=0;whiteSpace=wrap;html=1;strokeColor=#000000;fillColor=#FFB366;fontSize=14;fontColor=#000000;align=left;verticalAlign=top;" vertex="1" parent="1">
                    <mxGeometry x="550" y="258.5" width="100" height="135" as="geometry"/>
                </mxCell>
                <mxCell id="138" value="绿色细线：管理流&lt;br&gt;红色粗线：数据流&lt;br&gt;数据源：COW&lt;br&gt;CDP：快照+dataset&lt;br&gt;数据协议：DPP" style="text;html=1;strokeColor=none;fillColor=none;align=left;verticalAlign=top;whiteSpace=wrap;rounded=0;fontSize=14;fontColor=#000000;" vertex="1" parent="1">
                    <mxGeometry x="60" y="70" width="280" height="100" as="geometry"/>
                </mxCell>
                <mxCell id="139" value="vol" style="shape=cylinder;whiteSpace=wrap;html=1;boundedLbl=1;backgroundOutline=1;fillColor=#F5E3D0;strokeColor=#000000;fontColor=#000000;" vertex="1" parent="1">
                    <mxGeometry x="630" y="450" width="40" height="30" as="geometry"/>
                </mxCell>
                <mxCell id="140" value="&lt;span style=&quot;color: rgb(0, 0, 0); font-size: 12px;&quot;&gt;线下数据中心&lt;/span&gt;" style="rounded=0;whiteSpace=wrap;html=1;labelBackgroundColor=none;strokeColor=#000000;fillColor=#B3B3B3;fontSize=14;fontColor=#FFFFFF;align=center;" vertex="1" parent="1">
                    <mxGeometry x="60" y="175" width="280" height="30" as="geometry"/>
                </mxCell>
                <mxCell id="141" value="kernal" style="rounded=0;whiteSpace=wrap;html=1;strokeColor=#000000;fillColor=#999999;fontColor=#FFFFFF;verticalAlign=top;align=left;labelBackgroundColor=#4D4D4D;horizontal=1;fontStyle=1;labelBorderColor=#000000;" vertex="1" parent="1">
                    <mxGeometry x="660" y="360" width="110" height="34" as="geometry"/>
                </mxCell>
                <mxCell id="143" value="Host(重保护)" style="rounded=0;whiteSpace=wrap;html=1;verticalAlign=top;align=center;labelBackgroundColor=none;fillColor=#999999;strokeColor=#000000;fontColor=#000000;" vertex="1" parent="1">
                    <mxGeometry x="660" y="258.5" width="110" height="25" as="geometry"/>
                </mxCell>
                <mxCell id="145" value="Driver" style="rounded=0;whiteSpace=wrap;html=1;fillColor=#FF3333;strokeColor=#000000;fontColor=#000000;aspect=fixed;" vertex="1" parent="1">
                    <mxGeometry x="710" y="366.5" width="40" height="16" as="geometry"/>
                </mxCell>
                <mxCell id="146" value="user" style="rounded=0;whiteSpace=wrap;html=1;strokeColor=#000000;fillColor=#999999;fontColor=#FFFFFF;align=left;verticalAlign=top;labelBackgroundColor=#4D4D4D;labelBorderColor=#000000;fontStyle=1" vertex="1" parent="1">
                    <mxGeometry x="660" y="283.5" width="110" height="76" as="geometry"/>
                </mxCell>
                <mxCell id="147" value="API" style="rounded=0;whiteSpace=wrap;html=1;fillColor=#00B0F0;strokeColor=#000000;fontColor=#000000;" vertex="1" parent="1">
                    <mxGeometry x="730" y="289.5" width="30" height="16" as="geometry"/>
                </mxCell>
                <mxCell id="148" value="io" style="ellipse;whiteSpace=wrap;html=1;aspect=fixed;strokeColor=#000000;fillColor=#FF3333;fontColor=#000000;" vertex="1" parent="1">
                    <mxGeometry x="694" y="313.5" width="20" height="20" as="geometry"/>
                </mxCell>
                <mxCell id="149" value="io" style="ellipse;whiteSpace=wrap;html=1;aspect=fixed;strokeColor=#000000;fillColor=#FF3333;fontColor=#000000;" vertex="1" parent="1">
                    <mxGeometry x="674" y="313.5" width="20" height="20" as="geometry"/>
                </mxCell>
                <mxCell id="151" value="DRA" style="rounded=0;whiteSpace=wrap;html=1;fillColor=#FF3333;strokeColor=#000000;fontColor=#000000;" vertex="1" parent="1">
                    <mxGeometry x="730" y="335" width="30" height="16" as="geometry"/>
                </mxCell>
                <mxCell id="155" value="DRM" style="rounded=0;whiteSpace=wrap;html=1;fillColor=#00B0F0;strokeColor=#000000;fontColor=#000000;" vertex="1" parent="1">
                    <mxGeometry x="730" y="313" width="30" height="16" as="geometry"/>
                </mxCell>
                <mxCell id="158" value="vol" style="shape=cylinder;whiteSpace=wrap;html=1;boundedLbl=1;backgroundOutline=1;fillColor=#F5E3D0;strokeColor=#000000;fontColor=#000000;" vertex="1" parent="1">
                    <mxGeometry x="681" y="450" width="40" height="30" as="geometry"/>
                </mxCell>
                <mxCell id="160" value="vol" style="shape=cylinder;whiteSpace=wrap;html=1;boundedLbl=1;backgroundOutline=1;fillColor=#F5E3D0;strokeColor=#000000;fontColor=#000000;" vertex="1" parent="1">
                    <mxGeometry x="730" y="450" width="40" height="30" as="geometry"/>
                </mxCell>
                <mxCell id="163" value="vol" style="shape=cylinder;whiteSpace=wrap;html=1;boundedLbl=1;backgroundOutline=1;fillColor=#F5E3D0;strokeColor=#000000;fontColor=#000000;" vertex="1" parent="1">
                    <mxGeometry x="230" y="460" width="40" height="30" as="geometry"/>
                </mxCell>
                <mxCell id="164" value="vol" style="shape=cylinder;whiteSpace=wrap;html=1;boundedLbl=1;backgroundOutline=1;fillColor=#F5E3D0;strokeColor=#000000;fontColor=#000000;" vertex="1" parent="1">
                    <mxGeometry x="280" y="460" width="40" height="30" as="geometry"/>
                </mxCell>
            </root>
        </mxGraphModel>
    </diagram>
</mxfile>
